<svg width="120" height="24" viewBox="0 0 120 24" fill="none" xmlns="http://www.w3.org/2000/svg">
  <path d="M18.5 0L24 0L12 24L0 0L5.5 0L12 14L18.5 0Z" fill="currentColor"/>
  <path d="M30 0L35.5 0L23.5 24L18 24L30 0Z" fill="currentColor"/>
  <path d="M47.5 0L53 0L41 24L35.5 24L47.5 0Z" fill="currentColor"/>
  <path d="M65 0L70.5 0L58.5 24L53 24L65 0Z" fill="currentColor"/>
  <path d="M82.5 0L88 0L76 24L70.5 24L82.5 0Z" fill="currentColor"/>
  <path d="M100 0L105.5 0L93.5 24L88 24L100 0Z" fill="currentColor"/>
</svg>